<?xml version="1.0" encoding="utf-8"?>
<!-- Generator: Adobe Illustrator 21.0.0, SVG Export Plug-In . SVG Version: 6.00 Build 0)  -->
<svg version="1.1" id="Layer_1" xmlns="http://www.w3.org/2000/svg" xmlns:xlink="http://www.w3.org/1999/xlink" x="0px" y="0px"
	 viewBox="0 0 67.5 103.8" style="enable-background:new 0 0 67.5 103.8;" xml:space="preserve">
<style type="text/css">
	.st0{fill:#393F63;}
	.st1{fill:#AAB2DA;}
</style>
<path d="M31.2,71.8c0,9,0,17.9,0,27c-1.1,0-1.9,0-2.8,0c-4.7,0-9.5,0-14.2,0c-1.7,0-3.1,0.7-3.1,2.5c0,1.7,1.3,2.4,2.9,2.4
	c12.9,0,25.8,0,38.7,0c1.6,0,2.8-0.7,2.8-2.5c0-1.8-1.2-2.4-2.8-2.4c-4.5,0-9,0-13.5,0c-0.9,0-1.8-0.1-2.7-0.1c0-9.1,0-17.9,0-26.9
	c1.2-0.2,2.4-0.3,3.5-0.5c10.6-1.3,18.9-6.2,23.2-16.2c2.1-4.9,3.7-10.3,4-15.6c0.6-9.6,0-19.3-0.1-28.9C67,7.1,66.7,3.5,66.4,0
	C44.6,0,23.1,0,1.6,0C1.5,0.5,1.4,0.9,1.4,1.3C0.9,11.1,0.2,20.9,0,30.7c-0.1,5,0.4,10,1.4,14.9c2.7,12.8,9.9,21.6,22.9,25
	C26.6,71.2,28.9,71.4,31.2,71.8z"/>
<path class="st0" d="M31.2,71.8c-2.3-0.4-4.6-0.6-6.9-1.2c-13-3.4-20.3-12.2-22.9-25c-1-4.9-1.5-9.9-1.4-14.9
	c0.1-9.8,0.9-19.6,1.3-29.4c0-0.4,0.1-0.8,0.2-1.3c21.6,0,43,0,64.9,0c0.2,3.5,0.6,7.1,0.6,10.6c0.2,9.6,0.7,19.3,0.1,28.9
	c-0.3,5.3-1.9,10.7-4,15.6C58.9,65.1,50.6,70,40,71.3c-1.1,0.1-2.3,0.3-3.5,0.5c0,9,0,17.8,0,26.9c0.9,0,1.8,0.1,2.7,0.1
	c4.5,0,9,0,13.5,0c1.6,0,2.8,0.6,2.8,2.4c0,1.8-1.2,2.5-2.8,2.5c-12.9,0-25.8,0-38.7,0c-1.6,0-2.9-0.7-2.9-2.4
	c0-1.9,1.4-2.5,3.1-2.5c4.7,0,9.5,0,14.2,0c0.9,0,1.8,0,2.8,0C31.2,89.7,31.2,80.8,31.2,71.8z M62.9,29c-19.5,0-38.6,0-58.3,0
	C5,34,5.2,38.8,6,43.4c1.8,9.6,6.2,17.5,15.8,21.3c7.3,2.9,14.8,2.8,22.3,0.8c7.5-2,12.4-6.9,15.3-13.9C62.4,44.4,63,36.9,62.9,29z
	 M61.8,4.8c-1.2,0-2,0-2.9,0c-6.8,0-13.7,0-20.5,0c-10,0-20,0.1-30,0c-2,0-2.5,0.6-2.6,2.5C5.7,11.9,5.4,16.5,5.2,21
	c0,0.9,0,1.8,0,2.6c19.3,0,38.3,0,57.6,0C62.4,17.3,62.1,11.2,61.8,4.8z"/>
<path class="st1" d="M62.9,29c0.1,7.9-0.5,15.4-3.4,22.5c-2.9,7-7.8,11.9-15.3,13.9c-7.5,2-15,2.1-22.3-0.8C12.3,60.9,7.8,53,6,43.4
	C5.2,38.8,5,34,4.5,29C24.2,29,43.4,29,62.9,29z"/>
<path class="st1" d="M61.8,4.8c0.3,6.4,0.6,12.5,0.9,18.8c-19.3,0-38.3,0-57.6,0c0-0.9,0-1.7,0-2.6c0.2-4.6,0.6-9.1,0.7-13.7
	c0-1.9,0.6-2.6,2.6-2.5c10,0.1,20,0,30,0c6.8,0,13.7,0,20.5,0C59.8,4.8,60.7,4.8,61.8,4.8z"/>
</svg>
