<?xml version="1.0" encoding="utf-8"?>
<!-- Generator: Adobe Illustrator 21.0.0, SVG Export Plug-In . SVG Version: 6.00 Build 0)  -->
<svg version="1.1" id="Layer_1" xmlns="http://www.w3.org/2000/svg" xmlns:xlink="http://www.w3.org/1999/xlink" x="0px" y="0px"
	 viewBox="0 0 131.1 160.6" style="enable-background:new 0 0 131.1 160.6;" xml:space="preserve">
<style type="text/css">
	.st0{fill:#6BB08B;}
</style>
<g id="Yen502_1_">
	<g>
		<path class="st0" d="M34.6,130.5c0,7.1,0,13.8,0,21c4,0,7.8,0,11.6,0c2.6,0,4.9,0.5,4.8,3.7c-0.1,3-2.3,3.3-4.7,3.3
			c-10.6,0-21.2,0-31.7,0c-2.4,0-4.7-0.5-4.7-3.4c-0.1-3.1,2.3-3.7,4.8-3.7c4,0,8.1,0,12.7,0c0-6.8,0-13.2-0.1-19.7
			c0-0.6-1.1-1.5-1.8-1.6c-19.4-3-25-19-25.3-33.4c-0.2-9.6,0.8-19.3,1.1-28.9c0.1-2,0.8-2.6,2.7-2.6c18,0,36.1,0,54.1,0.1
			c0.9,0,2.6,0.7,2.6,1.8c0.8,12.5,2.5,25,0.4,37.6C58.5,119.5,50.5,128.9,34.6,130.5z M54.6,96.7c-16,0-31.6,0-47.6,0
			c0.7,9.5,2.2,18.6,11.1,23.7c8.8,5,18.3,4.9,26.8-0.5C53.2,114.6,54.1,105.7,54.6,96.7z M54.1,89.2c0-5.2,0.1-9.9-0.1-14.7
			c0-0.8-1.6-2.3-2.5-2.3c-13.7-0.1-27.4-0.1-41.2,0c-0.9,0-2.4,1-2.5,1.6c-0.4,5-0.6,10.1-0.8,15.4C23.1,89.2,38.7,89.2,54.1,89.2z
			"/>
		<path class="st0" d="M106,65.6c0,3.1-3,6-6.1,6c-3.2,0-5.9-2.8-5.9-6.1c0-3.2,2.9-6.1,6-6C103.1,59.5,106,62.5,106,65.6z"/>
	</g>
</g>
<g id="VU5P20_1_">
	<g>
		<path class="st0" d="M39.6,106.9"/>
	</g>
</g>
<path class="st0" d="M131,104.5c-0.1-12,0-24-0.7-35.9c-0.5-10.1-4.6-18.5-14.4-23c-1.9-0.9-2.4-2.1-2.4-4.1c0.1-12.1,0-24.2,0-36.3
	c0-4.1-1.1-5.2-5.1-5.2c-5,0-10,0-15,0C88.9,0,88,1,88,5.5c0,10.2-0.2,20.5,0.1,30.7c0.2,4.8-0.6,7.5-5.6,9.7
	C73,49.9,70.2,58.8,69.8,68c-0.5,15.4-0.1,30.9-0.1,46.4l-0.1,40.4c0,4.5,0.5,5.7,4.9,5.7c17.1,0,34.2,0,51.3,0c4.3,0,5.3-1,5.3-5.4
	C131.1,138.3,131.1,121.4,131,104.5z M94.5,8.7c0-1.3,1-2.3,2.3-2.3h8c1.3,0,2.3,1,2.3,2.3v7.1c0,1.3-1,2.3-2.3,2.3h-8
	c-1.3,0-2.3-1-2.3-2.3V8.7z M123.7,153.3c-1.1,0.1-2,0.2-2.9,0.2c-13.8,0-27.6,0-41.4,0c-1.9,0-3.4-0.1-3.3-2.7
	c0.1-2.6,1.8-2.3,3.3-2.3c13.6,0,27.1,0,40.7,0C124.3,148.6,124.3,148.6,123.7,153.3z M121.1,141.6c-14.1-0.1-28.1-0.1-42.2,0
	c-2.1,0-2.8-0.8-2.8-2.9c0.2-22.9,0.3-45.8,0.5-68.7c0-1.6,0.4-3.2,0.6-4.8c1-7.9,5.3-13.1,12.9-15.1c3.9-1,5.1-3.2,4.9-7.1
	c-0.2-6-0.1-12-0.1-18.5c4.1,0,7.5,0,11.5,0c0.1,1.3,0.2,2.5,0.2,3.7c0,5.6,0.1,11.2,0,16.7c0,2.6,0.8,4.5,3.4,5.5
	c9.6,3.6,13.5,11,13.6,20.7c0.3,22.6,0.3,45.1,0.5,67.7C124.1,141,123.1,141.6,121.1,141.6z"/>
</svg>
