<?xml version="1.0" encoding="utf-8"?>
<!-- Generator: Adobe Illustrator 21.0.0, SVG Export Plug-In . SVG Version: 6.00 Build 0)  -->
<svg version="1.1" id="Layer_1" xmlns="http://www.w3.org/2000/svg" xmlns:xlink="http://www.w3.org/1999/xlink" x="0px" y="0px"
	 viewBox="0 0 55.6 111.5" style="enable-background:new 0 0 55.6 111.5;" xml:space="preserve">
<style type="text/css">
	.st0{enable-background:new    ;}
	.st1{fill:#427651;}
</style>
<g class="st0">
	<path class="st1" d="M41.4,66.5c0-3-1-5.5-3.1-7.5c-2.1-2-5.6-3.9-10.5-5.5c-6.9-2.1-11.9-4.8-15-8.2C9.6,42,8,37.7,8,32.5
		c0-5.3,1.5-9.6,4.6-13c3.1-3.4,7.3-5.4,12.7-6V2.9h7.2v10.6c5.4,0.7,9.6,3,12.6,6.8s4.5,9,4.5,15.6h-8.9c0-4.6-1.1-8.2-3.2-10.9
		c-2.2-2.7-5.1-4-8.7-4c-3.8,0-6.8,1-8.8,3c-2,2-3,4.8-3,8.3c0,3.3,1.1,5.9,3.2,7.9c2.1,2,5.7,3.7,10.6,5.3
		c4.9,1.6,8.7,3.4,11.5,5.3s4.8,4.1,6.1,6.7c1.3,2.5,2,5.5,2,8.9c0,5.4-1.6,9.8-4.9,13.1c-3.3,3.3-7.9,5.3-13.7,5.9v9.2h-7.2v-9.2
		c-6-0.5-10.7-2.7-14.1-6.4C7,75.4,5.3,70.3,5.3,63.9h8.9c0,4.5,1.2,7.9,3.5,10.3c2.4,2.4,5.7,3.6,10,3.6c4.2,0,7.5-1,10-3
		S41.4,70.1,41.4,66.5z"/>
</g>
</svg>
