<?xml version="1.0" encoding="utf-8"?>
<!-- Generator: Adobe Illustrator 21.0.0, SVG Export Plug-In . SVG Version: 6.00 Build 0)  -->
<svg version="1.1" id="Layer_1" xmlns="http://www.w3.org/2000/svg" xmlns:xlink="http://www.w3.org/1999/xlink" x="0px" y="0px"
	 viewBox="0 0 196.5 247.9" style="enable-background:new 0 0 196.5 247.9;" xml:space="preserve">
<style type="text/css">
	.st0{fill:#C6E1F5;stroke:#2D649C;stroke-width:8;stroke-miterlimit:10;}
	.st1{fill:#2D649C;stroke:#2D649C;stroke-width:0.75;stroke-miterlimit:10;}
</style>
<g>
	<path class="st0" d="M173,243.9H23.5c-10.8,0-19.5-8.7-19.5-19.5V23.5C4,12.7,12.7,4,23.5,4H173c10.8,0,19.5,8.7,19.5,19.5v200.9
		C192.5,235.2,183.8,243.9,173,243.9z"/>
	<path class="st1" d="M66.8,69.3L66.8,69.3c0-3,3.2-5.4,7.2-5.4h48.5c4,0,7.2,2.4,7.2,5.4v0.2c0,3-3.2,5.4-7.2,5.4l-48.5-0.2
		C70,74.6,66.8,72.2,66.8,69.3z"/>
	<path class="st1" d="M51.3,118.4L51.3,118.4c0-3,4.8-5.4,10.7-5.4h72.5c5.9,0,10.7,2.4,10.7,5.4v0.2c0,3-4.8,5.4-10.8,5.4
		l-72.5-0.2C56,123.7,51.3,121.4,51.3,118.4z"/>
	<path class="st1" d="M67.1,167.5L67.1,167.5c0-2.9,3.2-5.3,7.1-5.3h48.1c3.9,0,7.1,2.4,7.1,5.3v0.2c0,2.9-3.2,5.3-7.1,5.3
		l-48.1-0.2C70.3,172.8,67.1,170.4,67.1,167.5z"/>
</g>
</svg>
