<?xml version="1.0" encoding="utf-8"?>
<!-- Generator: Adobe Illustrator 21.0.0, SVG Export Plug-In . SVG Version: 6.00 Build 0)  -->
<svg version="1.1" id="Layer_1" xmlns="http://www.w3.org/2000/svg" xmlns:xlink="http://www.w3.org/1999/xlink" x="0px" y="0px"
	 viewBox="0 0 205.8 118.5" style="enable-background:new 0 0 205.8 118.5;" xml:space="preserve">
<style type="text/css">
	.st0{fill:#7485C2;}
</style>
<g id="x8ofXF_1_">
	<g>
		<path class="st0" d="M17,109.2C23.5,68,48.8,46.1,87.6,36.9c-4.4-6.6-6.2-13.8-3.6-21.7c1.6-4.7,4.4-8.5,8.5-11.2
			c8.8-5.8,19.7-5.2,27.5,1.5c8.9,7.7,9.7,17.5,2.7,31.9c37.2,9.9,61.5,31.9,67.4,71.8c2.8,0,5.8,0,8.8,0c4.5,0,6.9,1.5,6.9,4.6
			c0,3.1-2.3,4.7-6.8,4.7c-40.3,0-80.5,0-120.8,0c-23.3,0-46.6,0-69.9,0c-0.8,0-1.7,0-2.5,0c-3.6-0.1-5.9-1.9-5.9-4.7
			c0-2.8,2.3-4.5,6-4.6C9.7,109.2,13.4,109.2,17,109.2z M180.3,109c0-0.8,0.1-1.4,0-2c-2.4-18.1-10.8-33-25.2-44.1
			C130.7,44,103.4,40.3,74.7,50.5C52,58.4,36.2,73.9,29,97.3c-1.1,3.7-1.5,7.6-2.3,11.7C78.3,109,129.2,109,180.3,109z M105.2,35.7
			c7.4,0.1,13.3-5.5,13.4-12.6c0.1-7.6-5.7-13.7-13.1-13.8C98.3,9.2,92.2,15,92.1,22.1C92,29.9,97.4,35.6,105.2,35.7z"/>
		<path class="st0" d="M36.9,93.7c1-9.5,5.9-17.9,13.4-24.2c6-5,12.9-8.9,19.5-13.3c0.4-0.3,0.9-0.4,1.4-0.6c2.8-1,5.2-0.1,6.3,2.4
			c1,2.2-0.1,4.4-2.5,6c-6.1,3.9-12.4,7.6-18,12.1c-6,4.9-9.9,11.4-10.9,19.4c-0.4,3.3-2.3,4.9-5.1,4.6
			C38.2,99.7,36.7,97.7,36.9,93.7z"/>
	</g>
</g>
</svg>
