<?xml version="1.0" encoding="utf-8"?>
<!-- Generator: Adobe Illustrator 21.0.0, SVG Export Plug-In . SVG Version: 6.00 Build 0)  -->
<svg version="1.1" id="Layer_1" xmlns="http://www.w3.org/2000/svg" xmlns:xlink="http://www.w3.org/1999/xlink" x="0px" y="0px"
	 viewBox="0 0 150.1 30.5" style="enable-background:new 0 0 150.1 30.5;" xml:space="preserve">
<style type="text/css">
	.st0{fill:#C4C4C4;}
	.st1{fill:#C4C4C4;stroke:#0F1116;stroke-width:0.25;stroke-miterlimit:10;}
	.st2{fill:#C4C4C4;stroke:#0F1116;stroke-width:0.1;stroke-miterlimit:10;}
</style>
<g>
	<path class="st0" d="M22.9,3.6h-9.5v26.4H9.5V3.6H0V0.4h22.9V3.6z"/>
	<path class="st0" d="M76.4,16.8c-3.4-1-5.8-2.1-7.3-3.6c-1.5-1.4-2.3-3.1-2.3-5.2c0-2.3,0.9-4.3,2.8-5.8C71.5,0.8,73.9,0,76.9,0
		c2,0,3.9,0.4,5.4,1.2C83.9,2,85.2,3.1,86,4.4c0.9,1.4,1.3,2.9,1.3,4.5h-3.9c0-1.8-0.6-3.2-1.7-4.2S79,3.2,76.9,3.2
		c-1.9,0-3.4,0.4-4.5,1.3c-1.1,0.9-1.6,2-1.6,3.5c0,1.2,0.5,2.2,1.5,3.1c1,0.8,2.8,1.6,5.2,2.3c2.5,0.7,4.4,1.5,5.8,2.3
		c1.4,0.8,2.4,1.8,3.1,2.9s1,2.4,1,3.9c0,2.4-0.9,4.3-2.8,5.8c-1.9,1.4-4.4,2.2-7.5,2.2c-2,0-3.9-0.4-5.7-1.2s-3.1-1.8-4.1-3.2
		c-1-1.4-1.4-2.9-1.4-4.6h3.9c0,1.8,0.7,3.2,2,4.2c1.3,1,3.1,1.6,5.3,1.6c2.1,0,3.6-0.4,4.7-1.3s1.6-2,1.6-3.4
		c0-1.5-0.5-2.6-1.5-3.4S79.1,17.6,76.4,16.8z"/>
	<path class="st0" d="M112.9,3.6h-9.5v26.4h-3.9V3.6H90V0.4h22.9V3.6z"/>
	<path class="st0" d="M121.5,30.1h-3.9V0.4h3.9V30.1z"/>
	<path class="st0" d="M139.5,18.1h-7v12h-3.9V0.4h9.8c3.3,0,5.9,0.8,7.7,2.3c1.8,1.5,2.7,3.7,2.7,6.6c0,1.8-0.5,3.5-1.5,4.8
		c-1,1.4-2.4,2.4-4.2,3.1l7,12.6v0.2h-4.2L139.5,18.1z M132.6,14.9h6c1.9,0,3.5-0.5,4.6-1.5c1.1-1,1.7-2.4,1.7-4
		c0-1.8-0.5-3.2-1.6-4.2c-1.1-1-2.7-1.5-4.7-1.5h-6V14.9z"/>
	<path class="st0" d="M54.5,30.1h4.1l-5.8-16h8.3v-2.9h-9.4l-2.8-7.8h4.4V0.4h-5.2h-8.9h-5.5v2.9h4.7l-2.5,7.8l-9.9,0V14l8.9,0
		l-5.3,16h3.8l5.3-16l10.1,0 M39.5,11.1l2.6-7.8l2.8,0l2.7,7.8L39.5,11.1z"/>
	<path class="st1" d="M60.8,3.3"/>
	<path class="st1" d="M97.7,3.3"/>
	<path class="st2" d="M80.3,3.3"/>
	<path class="st2" d="M43.3,3.3"/>
	<path class="st2" d="M132.7,30.1"/>
	<path class="st2" d="M115.2,3.3"/>
</g>
</svg>
